<?xml version="1.0" standalone="no"?>
<!DOCTYPE svg PUBLIC "-//W3C//DTD SVG 20010904//EN"
 "http://www.w3.org/TR/2001/REC-SVG-20010904/DTD/svg10.dtd">
<svg version="1.0" xmlns="http://www.w3.org/2000/svg"
 width="512.000000pt" height="512.000000pt" viewBox="0 0 512.000000 512.000000"
 preserveAspectRatio="xMidYMid meet">
<metadata>
Created by potrace 1.14, written by Peter Selinger 2001-2017
</metadata>
<g transform="translate(0.000000,512.000000) scale(0.100000,-0.100000)"
fill="#000000" stroke="none">
<path d="M935 5105 c-85 -18 -140 -42 -215 -91 -82 -54 -95 -66 -152 -136
-142 -174 -178 -421 -93 -638 52 -132 175 -263 310 -330 73 -36 81 -42 83 -70
5 -65 42 -228 72 -320 55 -169 177 -395 289 -535 106 -132 319 -318 449 -391
28 -16 52 -31 52 -34 0 -3 -23 -18 -51 -34 -128 -72 -350 -265 -450 -391 -92
-117 -193 -289 -249 -425 -31 -76 -85 -251 -93 -305 -3 -16 -8 -46 -11 -65 -3
-19 -8 -48 -11 -64 -5 -35 2 -29 -70 -61 -127 -58 -252 -180 -302 -295 -50
-113 -55 -136 -59 -255 -4 -129 7 -191 50 -289 79 -178 253 -319 447 -360 92
-20 3163 -22 3254 -2 221 48 403 211 476 426 27 81 37 238 20 318 -42 197
-169 365 -339 448 -43 20 -78 38 -80 40 -2 1 -6 17 -8 36 -12 85 -48 241 -76
323 -27 83 -112 268 -155 340 -101 168 -238 323 -403 458 -62 50 -208 147
-221 147 -21 0 -5 17 39 41 61 34 195 134 267 199 281 255 490 640 541 1000
12 84 12 83 84 118 162 76 289 228 340 408 23 79 25 239 4 321 -46 177 -171
331 -337 415 -140 70 -42 66 -1777 66 -1260 0 -1577 -2 -1625 -13z m3166 -419
c51 -9 115 -58 139 -107 55 -107 12 -237 -96 -290 l-47 -22 -1536 0 c-1420 0
-1539 1 -1576 17 -202 86 -157 381 62 405 79 8 3009 6 3054 -3z m-281 -855 c0
-26 -53 -206 -80 -271 -66 -159 -145 -276 -280 -411 -247 -248 -575 -380 -925
-373 -425 8 -810 223 -1051 585 -71 106 -161 327 -178 437 l-6 42 1260 0 c730
0 1260 -4 1260 -9z m-1055 -1500 c91 -16 103 -19 194 -48 109 -34 252 -107
352 -179 160 -116 323 -312 404 -488 40 -86 89 -231 100 -293 l7 -43 -1262 0
-1262 0 7 36 c67 362 317 697 655 881 121 66 315 128 433 139 34 3 63 7 65 8
7 7 253 -3 307 -13z m1336 -1485 c51 -9 115 -58 139 -107 55 -107 12 -237 -96
-290 l-47 -22 -1536 0 c-1420 0 -1539 1 -1576 17 -202 86 -157 381 62 405 79
8 3009 6 3054 -3z"/>
</g>
</svg>
